STARTFONT 2.1
FONT -AmsteinGraphics-DMCP-Bold-R-Normal--46-460-36-38-P-111-ISO10646-1
SIZE 7 173 173
FONTBOUNDINGBOX 14 27 0 -5
STARTPROPERTIES 30
FAMILY_NAME "DMCP"
DEFAULT_CHAR -1
FOUNDRY "AmsteinGraphics"
COPYRIGHT "Copyright (c) 2022 SwissMicros"
CODEPAGE "MS Windows 1252 Western (ANSI)"
ENC_MODE 2
ENC_ID 1
CREATION_YEAR 2022
WEIGHT_NAME "Bold"
SLANT "R"
SETWIDTH_NAME "Normal"
SPACING "P"
WEIGHT 700
HI_VERSION 1
MAC_FONT_STYLE 1
CP_RANGE_1 65535
CP_RANGE_2 65535
FONTNAME_REGISTRY "-"
CHARSET_REGISTRY "ISO10646"
CHARSET_ENCODING "1"
BREAK_CHAR 32
PIXEL_SIZE 17
POINT_SIZE 70
FONT_ASCENT 18
FONT_DESCENT 5
RESOLUTION_X 173
RESOLUTION_Y 173
AVERAGE_WIDTH 111
X_HEIGHT 13
CAP_HEIGHT 18
ENDPROPERTIES
CHARS 289
STARTCHAR space.uni0020
ENCODING 32
SWIDTH 576 0
DWIDTH 14 0
BBX 0 0 0 0
BITMAP
ENDCHAR
STARTCHAR exclam.uni0021
ENCODING 33
SWIDTH 576 0
DWIDTH 14 0
BBX 3 18 5 0
BITMAP
E000
E000
E000
E000
E000
E000
E000
E000
E000
E000
E000
E000
E000
0000
0000
E000
E000
E000
ENDCHAR
STARTCHAR quotedbl.uni0022
ENCODING 34
SWIDTH 576 0
DWIDTH 14 0
BBX 9 7 2 11
BITMAP
E380
E380
E380
E380
E380
E380
E380
ENDCHAR
STARTCHAR numbersign.uni0023
ENCODING 35
SWIDTH 576 0
DWIDTH 14 0
BBX 14 17 0 0
BITMAP
0738
0738
0630
0E70
7FFC
7FFC
7FFC
0C60
1CE0
18C0
FFF8
FFF8
FFF8
39C0
3180
7380
7380
ENDCHAR
STARTCHAR dollar.uni0024
ENCODING 36
SWIDTH 576 0
DWIDTH 14 0
BBX 10 22 2 -4
BITMAP
0C00
0C00
0C00
3F00
7F80
FF80
EC80
EC00
EC00
FE00
7F80
1F80
0DC0
0DC0
8DC0
FFC0
FF80
7F00
0C00
0C00
0C00
0C00
ENDCHAR
STARTCHAR percent.uni0025
ENCODING 37
SWIDTH 576 0
DWIDTH 14 0
BBX 13 18 0 0
BITMAP
3800
7C00
C600
C600
C600
7C00
3818
0060
0180
0600
1800
60E0
01F0
0318
0318
0318
01F0
00E0
ENDCHAR
STARTCHAR ampersand.uni0026
ENCODING 38
SWIDTH 576 0
DWIDTH 14 0
BBX 13 18 1 0
BITMAP
0F80
1FC0
3FC0
3840
3800
3800
1C00
1E00
3E00
7F38
E7B8
E3B8
E3F8
E1F0
F0E0
7FF0
3FF0
1F78
ENDCHAR
STARTCHAR quotesingle.uni0027
ENCODING 39
SWIDTH 576 0
DWIDTH 14 0
BBX 3 7 5 11
BITMAP
E000
E000
E000
E000
E000
E000
E000
ENDCHAR
STARTCHAR parenleft.uni0028
ENCODING 40
SWIDTH 576 0
DWIDTH 14 0
BBX 6 21 4 -3
BITMAP
1C00
3800
3800
7000
7000
7000
E000
E000
E000
E000
E000
E000
E000
E000
E000
7000
7000
7000
3800
3800
1C00
ENDCHAR
STARTCHAR parenright.uni0029
ENCODING 41
SWIDTH 576 0
DWIDTH 14 0
BBX 6 21 3 -3
BITMAP
E000
7000
7000
3000
3800
3800
1C00
1C00
1C00
1C00
1C00
1C00
1C00
1C00
1C00
3800
3800
3800
7000
7000
E000
ENDCHAR
STARTCHAR asterisk.uni002A
ENCODING 42
SWIDTH 576 0
DWIDTH 14 0
BBX 12 12 1 6
BITMAP
0600
0600
4620
F6F0
7FE0
1F80
1F80
7FE0
F6F0
4620
0600
0600
ENDCHAR
STARTCHAR plus.uni002B
ENCODING 43
SWIDTH 576 0
DWIDTH 14 0
BBX 13 13 1 1
BITMAP
0700
0700
0700
0700
0700
FFF8
FFF8
FFF8
0700
0700
0700
0700
0700
ENDCHAR
STARTCHAR comma.uni002C
ENCODING 44
SWIDTH 576 0
DWIDTH 14 0
BBX 5 8 4 -4
BITMAP
7800
7800
7800
7800
7000
7000
E000
C000
ENDCHAR
STARTCHAR hyphen.uni002D
ENCODING 45
SWIDTH 576 0
DWIDTH 14 0
BBX 7 3 3 5
BITMAP
FE00
FE00
FE00
ENDCHAR
STARTCHAR period.uni002E
ENCODING 46
SWIDTH 576 0
DWIDTH 14 0
BBX 4 4 5 0
BITMAP
F000
F000
F000
F000
ENDCHAR
STARTCHAR slash.uni002F
ENCODING 47
SWIDTH 576 0
DWIDTH 14 0
BBX 11 20 1 -2
BITMAP
0060
0060
00C0
00C0
0180
0180
0300
0300
0600
0600
0C00
0C00
1800
1800
3000
3000
6000
6000
C000
C000
ENDCHAR
STARTCHAR zero.uni0030
ENCODING 48
SWIDTH 576 0
DWIDTH 14 0
BBX 11 18 1 0
BITMAP
1F00
3F80
7FC0
71C0
F1E0
E1E0
E3E0
E7E0
EEE0
FCE0
F8E0
F0E0
E0E0
F1E0
71C0
7FC0
3F80
1F00
ENDCHAR
STARTCHAR one.uni0031
ENCODING 49
SWIDTH 576 0
DWIDTH 14 0
BBX 11 18 2 0
BITMAP
1E00
7E00
7E00
6E00
0E00
0E00
0E00
0E00
0E00
0E00
0E00
0E00
0E00
0E00
0E00
FFE0
FFE0
FFE0
ENDCHAR
STARTCHAR two.uni0032
ENCODING 50
SWIDTH 576 0
DWIDTH 14 0
BBX 11 18 1 0
BITMAP
3F00
FFC0
FFC0
C1E0
00E0
00E0
00E0
01C0
03C0
0380
0700
0E00
1C00
3800
7000
FFE0
FFE0
FFE0
ENDCHAR
STARTCHAR three.uni0033
ENCODING 51
SWIDTH 576 0
DWIDTH 14 0
BBX 11 18 1 0
BITMAP
3F00
7FC0
7FE0
41E0
00E0
00E0
01E0
1FC0
1F00
1FC0
01E0
00E0
00E0
00E0
81E0
FFC0
FFC0
7F00
ENDCHAR
STARTCHAR four.uni0034
ENCODING 52
SWIDTH 576 0
DWIDTH 14 0
BBX 11 18 1 0
BITMAP
0380
0780
0F80
0F80
1F80
1B80
3B80
3380
7380
6380
E380
FFE0
FFE0
FFE0
0380
0380
0380
0380
ENDCHAR
STARTCHAR five.uni0035
ENCODING 53
SWIDTH 576 0
DWIDTH 14 0
BBX 11 18 1 0
BITMAP
7FC0
7FC0
7FC0
7000
7000
7000
7F00
7F80
7FC0
41E0
00E0
00E0
00E0
00E0
81E0
FFC0
FF80
7E00
ENDCHAR
STARTCHAR six.uni0036
ENCODING 54
SWIDTH 576 0
DWIDTH 14 0
BBX 11 18 1 0
BITMAP
0F80
3FC0
7FC0
7840
7000
E000
EF00
FFC0
FFC0
F1E0
E0E0
E0E0
E0E0
E0E0
71E0
7FC0
3FC0
1F00
ENDCHAR
STARTCHAR seven.uni0037
ENCODING 55
SWIDTH 576 0
DWIDTH 14 0
BBX 11 18 1 0
BITMAP
FFE0
FFE0
FFE0
01E0
01C0
01C0
03C0
0380
0380
0700
0700
0F00
0E00
0E00
1E00
1C00
1C00
3800
ENDCHAR
STARTCHAR eight.uni0038
ENCODING 56
SWIDTH 576 0
DWIDTH 14 0
BBX 11 18 1 0
BITMAP
1F00
7FC0
FFC0
F1E0
E0E0
E0E0
F1E0
7FC0
1F00
7FC0
F1C0
E0E0
E0E0
E0E0
F1E0
7FC0
7FC0
1F00
ENDCHAR
STARTCHAR nine.uni0039
ENCODING 57
SWIDTH 576 0
DWIDTH 14 0
BBX 11 18 1 0
BITMAP
1F00
7F80
7FC0
F1C0
E0E0
E0E0
E0E0
E0E0
F1E0
7FE0
7FE0
1EE0
00E0
01C0
43C0
7F80
7F80
3E00
ENDCHAR
STARTCHAR colon.uni003A
ENCODING 58
SWIDTH 576 0
DWIDTH 14 0
BBX 4 12 5 0
BITMAP
F000
F000
F000
F000
0000
0000
0000
0000
F000
F000
F000
F000
ENDCHAR
STARTCHAR semicolon.uni003B
ENCODING 59
SWIDTH 576 0
DWIDTH 14 0
BBX 5 16 4 -4
BITMAP
7800
7800
7800
7800
0000
0000
0000
0000
7800
7800
7800
7800
7000
7000
E000
C000
ENDCHAR
STARTCHAR less.uni003C
ENCODING 60
SWIDTH 576 0
DWIDTH 14 0
BBX 12 13 1 1
BITMAP
0010
00F0
03F0
0FE0
7F00
FC00
E000
FC00
7F00
0FE0
03F0
00F0
0010
ENDCHAR
STARTCHAR equal.uni003D
ENCODING 61
SWIDTH 576 0
DWIDTH 14 0
BBX 12 9 1 3
BITMAP
FFF0
FFF0
FFF0
0000
0000
0000
FFF0
FFF0
FFF0
ENDCHAR
STARTCHAR greater.uni003E
ENCODING 62
SWIDTH 576 0
DWIDTH 14 0
BBX 12 13 1 1
BITMAP
8000
F000
FC00
7F00
0FE0
03F0
0070
03F0
0FE0
7F00
FC00
F000
8000
ENDCHAR
STARTCHAR question.uni003F
ENCODING 63
SWIDTH 576 0
DWIDTH 14 0
BBX 9 18 3 0
BITMAP
7E00
FF00
FF80
8380
0380
0380
0700
0E00
1E00
3C00
3800
3800
3800
3800
0000
3800
3800
3800
ENDCHAR
STARTCHAR at.uni0040
ENCODING 64
SWIDTH 576 0
DWIDTH 14 0
BBX 13 20 0 -4
BITMAP
07C0
1FF0
3C30
3018
6018
63D8
C7F8
CE38
CC18
CC18
CC18
CC18
CE38
E7F8
63D8
6000
3000
1C10
0FF8
03F0
ENDCHAR
STARTCHAR A.uni0041
ENCODING 65
SWIDTH 576 0
DWIDTH 14 0
BBX 13 18 0 0
BITMAP
0F80
0F80
0F80
0D80
1DC0
1DC0
1DC0
1DC0
38E0
38E0
38E0
3FE0
7FF0
7FF0
7070
7070
F078
E038
ENDCHAR
STARTCHAR B.uni0042
ENCODING 66
SWIDTH 576 0
DWIDTH 14 0
BBX 12 18 1 0
BITMAP
FF00
FFC0
FFE0
E1E0
E0E0
E0E0
E1E0
FFC0
FF00
FFC0
E0E0
E070
E070
E070
E0F0
FFF0
FFE0
FF80
ENDCHAR
STARTCHAR C.uni0043
ENCODING 67
SWIDTH 576 0
DWIDTH 14 0
BBX 11 18 2 0
BITMAP
0FC0
1FE0
3FE0
7860
7020
F000
E000
E000
E000
E000
E000
E000
F000
7020
7860
3FE0
1FE0
0FC0
ENDCHAR
STARTCHAR D.uni0044
ENCODING 68
SWIDTH 576 0
DWIDTH 14 0
BBX 12 18 2 0
BITMAP
FE00
FF80
FFC0
E1E0
E0E0
E0F0
E070
E070
E070
E070
E070
E070
E0F0
E0E0
E1E0
FFC0
FF80
FE00
ENDCHAR
STARTCHAR E.uni0045
ENCODING 69
SWIDTH 576 0
DWIDTH 14 0
BBX 11 18 2 0
BITMAP
FFE0
FFE0
FFE0
E000
E000
E000
E000
FFC0
FFC0
FFC0
E000
E000
E000
E000
E000
FFE0
FFE0
FFE0
ENDCHAR
STARTCHAR F.uni0046
ENCODING 70
SWIDTH 576 0
DWIDTH 14 0
BBX 11 18 2 0
BITMAP
FFE0
FFE0
FFE0
E000
E000
E000
E000
FFC0
FFC0
FFC0
E000
E000
E000
E000
E000
E000
E000
E000
ENDCHAR
STARTCHAR G.uni0047
ENCODING 71
SWIDTH 576 0
DWIDTH 14 0
BBX 12 18 1 0
BITMAP
0FC0
1FE0
3FE0
7860
7000
F000
E000
E000
E1F0
E1F0
E1F0
E070
F070
7070
7870
3FF0
1FF0
0FC0
ENDCHAR
STARTCHAR H.uni0048
ENCODING 72
SWIDTH 576 0
DWIDTH 14 0
BBX 11 18 2 0
BITMAP
E0E0
E0E0
E0E0
E0E0
E0E0
E0E0
E0E0
FFE0
FFE0
FFE0
E0E0
E0E0
E0E0
E0E0
E0E0
E0E0
E0E0
E0E0
ENDCHAR
STARTCHAR I.uni0049
ENCODING 73
SWIDTH 576 0
DWIDTH 14 0
BBX 9 18 2 0
BITMAP
FF80
FF80
FF80
1C00
1C00
1C00
1C00
1C00
1C00
1C00
1C00
1C00
1C00
1C00
1C00
FF80
FF80
FF80
ENDCHAR
STARTCHAR J.uni004A
ENCODING 74
SWIDTH 576 0
DWIDTH 14 0
BBX 11 18 1 0
BITMAP
0FE0
0FE0
0FE0
00E0
00E0
00E0
00E0
00E0
00E0
00E0
00E0
00E0
00E0
80E0
C1E0
FFC0
FFC0
3F00
ENDCHAR
STARTCHAR K.uni004B
ENCODING 75
SWIDTH 576 0
DWIDTH 14 0
BBX 12 18 1 0
BITMAP
E0F0
E1E0
E3C0
E380
E780
EF00
FE00
FE00
FE00
FF00
F700
E780
E380
E3C0
E1C0
E1E0
E0E0
E0F0
ENDCHAR
STARTCHAR L.uni004C
ENCODING 76
SWIDTH 576 0
DWIDTH 14 0
BBX 10 18 3 0
BITMAP
E000
E000
E000
E000
E000
E000
E000
E000
E000
E000
E000
E000
E000
E000
E000
FFC0
FFC0
FFC0
ENDCHAR
STARTCHAR M.uni004D
ENCODING 77
SWIDTH 576 0
DWIDTH 14 0
BBX 12 18 1 0
BITMAP
F0F0
F0F0
F0F0
F9F0
F9F0
F9F0
FFF0
EF70
EF70
EF70
E670
E670
E670
E070
E070
E070
E070
E070
ENDCHAR
STARTCHAR N.uni004E
ENCODING 78
SWIDTH 576 0
DWIDTH 14 0
BBX 11 18 1 0
BITMAP
F0E0
F0E0
F0E0
F8E0
F8E0
F8E0
ECE0
ECE0
ECE0
E6E0
E6E0
E6E0
E3E0
E3E0
E3E0
E1E0
E1E0
E1E0
ENDCHAR
STARTCHAR O.uni004F
ENCODING 79
SWIDTH 576 0
DWIDTH 14 0
BBX 12 18 1 0
BITMAP
0F00
3FC0
7FE0
70E0
70E0
E070
E070
E070
E070
E070
E070
E070
E070
70E0
70E0
7FE0
3FC0
0F00
ENDCHAR
STARTCHAR P.uni0050
ENCODING 80
SWIDTH 576 0
DWIDTH 14 0
BBX 11 18 2 0
BITMAP
FF00
FFC0
FFC0
E1E0
E0E0
E0E0
E0E0
E1E0
FFC0
FFC0
FF00
E000
E000
E000
E000
E000
E000
E000
ENDCHAR
STARTCHAR Q.uni0051
ENCODING 81
SWIDTH 576 0
DWIDTH 14 0
BBX 12 21 1 -3
BITMAP
0F00
3FC0
7FE0
70E0
70E0
E070
E070
E070
E070
E070
E070
E070
E070
70F0
70E0
7FE0
3FC0
0FC0
01E0
00E0
0040
ENDCHAR
STARTCHAR R.uni0052
ENCODING 82
SWIDTH 576 0
DWIDTH 14 0
BBX 12 18 2 0
BITMAP
FF00
FFC0
FFC0
E1E0
E0E0
E0E0
E0E0
E1E0
FFC0
FF00
FF80
E3C0
E1C0
E1E0
E0E0
E0F0
E070
E070
ENDCHAR
STARTCHAR S.uni0053
ENCODING 83
SWIDTH 576 0
DWIDTH 14 0
BBX 11 18 2 0
BITMAP
1F80
7FC0
7FC0
F0C0
E040
E000
F000
7E00
7F80
1FC0
07E0
01E0
00E0
80E0
E1E0
FFC0
FFC0
7F00
ENDCHAR
STARTCHAR T.uni0054
ENCODING 84
SWIDTH 576 0
DWIDTH 14 0
BBX 11 18 1 0
BITMAP
FFE0
FFE0
FFE0
0E00
0E00
0E00
0E00
0E00
0E00
0E00
0E00
0E00
0E00
0E00
0E00
0E00
0E00
0E00
ENDCHAR
STARTCHAR U.uni0055
ENCODING 85
SWIDTH 576 0
DWIDTH 14 0
BBX 11 18 1 0
BITMAP
E0E0
E0E0
E0E0
E0E0
E0E0
E0E0
E0E0
E0E0
E0E0
E0E0
E0E0
E0E0
E0E0
E0E0
F1E0
7FC0
7FC0
1F00
ENDCHAR
STARTCHAR V.uni0056
ENCODING 86
SWIDTH 576 0
DWIDTH 14 0
BBX 13 18 1 0
BITMAP
E038
F078
7070
7070
7070
7070
78F0
38E0
38E0
38E0
3DE0
1DC0
1DC0
1DC0
1DC0
0F80
0F80
0F80
ENDCHAR
STARTCHAR W.uni0057
ENCODING 87
SWIDTH 576 0
DWIDTH 14 0
BBX 14 18 0 0
BITMAP
E01C
E01C
E01C
E01C
E01C
6318
6318
77B8
77B8
77B8
7FF8
7CF8
7CF8
3CF0
3CF0
3870
3870
3870
ENDCHAR
STARTCHAR X.uni0058
ENCODING 88
SWIDTH 576 0
DWIDTH 14 0
BBX 13 18 0 0
BITMAP
F078
7070
78F0
38E0
3DE0
1DC0
0FC0
0F80
0700
0F80
0F80
1FC0
1DC0
3DE0
38E0
78F0
7070
F078
ENDCHAR
STARTCHAR Y.uni0059
ENCODING 89
SWIDTH 576 0
DWIDTH 14 0
BBX 13 18 0 0
BITMAP
F078
7070
78F0
38E0
38E0
1DC0
1DC0
1FC0
0F80
0F80
0700
0700
0700
0700
0700
0700
0700
0700
ENDCHAR
STARTCHAR Z.uni005A
ENCODING 90
SWIDTH 576 0
DWIDTH 14 0
BBX 12 18 1 0
BITMAP
FFF0
FFF0
FFF0
00F0
01E0
03C0
03C0
0780
0F00
0F00
1E00
3C00
3800
7800
F000
FFF0
FFF0
FFF0
ENDCHAR
STARTCHAR bracketleft.uni005B
ENCODING 91
SWIDTH 576 0
DWIDTH 14 0
BBX 6 21 5 -3
BITMAP
FC00
FC00
E000
E000
E000
E000
E000
E000
E000
E000
E000
E000
E000
E000
E000
E000
E000
E000
E000
FC00
FC00
ENDCHAR
STARTCHAR backslash.uni005C
ENCODING 92
SWIDTH 576 0
DWIDTH 14 0
BBX 11 20 1 -2
BITMAP
C000
C000
6000
6000
3000
3000
1800
1800
0C00
0C00
0600
0600
0300
0300
0180
0180
00C0
00C0
0060
0060
ENDCHAR
STARTCHAR bracketright.uni005D
ENCODING 93
SWIDTH 576 0
DWIDTH 14 0
BBX 6 21 3 -3
BITMAP
FC00
FC00
1C00
1C00
1C00
1C00
1C00
1C00
1C00
1C00
1C00
1C00
1C00
1C00
1C00
1C00
1C00
1C00
1C00
FC00
FC00
ENDCHAR
STARTCHAR asciicircum.uni005E
ENCODING 94
SWIDTH 576 0
DWIDTH 14 0
BBX 13 7 1 11
BITMAP
0700
0F80
1FC0
1DC0
38E0
7070
E038
ENDCHAR
STARTCHAR underscore.uni005F
ENCODING 95
SWIDTH 576 0
DWIDTH 14 0
BBX 14 2 0 -5
BITMAP
FFFC
FFFC
ENDCHAR
STARTCHAR grave.uni0060
ENCODING 96
SWIDTH 576 0
DWIDTH 14 0
BBX 6 4 2 15
BITMAP
E000
7000
3800
1C00
ENDCHAR
STARTCHAR a.uni0061
ENCODING 97
SWIDTH 576 0
DWIDTH 14 0
BBX 12 13 1 0
BITMAP
3F80
7FE0
7FE0
60F0
0070
3FF0
7FF0
FFF0
E070
E0F0
FFF0
7FF0
3E70
ENDCHAR
STARTCHAR b.uni0062
ENCODING 98
SWIDTH 576 0
DWIDTH 14 0
BBX 12 18 1 0
BITMAP
E000
E000
E000
E000
E000
E780
EFC0
FFE0
F0F0
E070
E070
E070
E070
E070
F0F0
FFE0
EFC0
E780
ENDCHAR
STARTCHAR c.uni0063
ENCODING 99
SWIDTH 576 0
DWIDTH 14 0
BBX 11 13 2 0
BITMAP
0FC0
3FE0
7FE0
7820
F000
E000
E000
E000
E000
7820
7FE0
3FE0
0FC0
ENDCHAR
STARTCHAR d.uni0064
ENCODING 100
SWIDTH 576 0
DWIDTH 14 0
BBX 12 18 1 0
BITMAP
0070
0070
0070
0070
0070
1E70
3F70
7FF0
F0F0
E070
E070
E070
E070
E070
F0F0
7FF0
3F70
1E70
ENDCHAR
STARTCHAR e.uni0065
ENCODING 101
SWIDTH 576 0
DWIDTH 14 0
BBX 12 13 1 0
BITMAP
1F80
3FC0
7FE0
70E0
E070
FFF0
FFF0
FFF0
E000
7020
7FE0
3FE0
1FC0
ENDCHAR
STARTCHAR f.uni0066
ENCODING 102
SWIDTH 576 0
DWIDTH 14 0
BBX 10 18 2 0
BITMAP
0FC0
1FC0
1FC0
1C00
1C00
FFC0
FFC0
FFC0
1C00
1C00
1C00
1C00
1C00
1C00
1C00
1C00
1C00
1C00
ENDCHAR
STARTCHAR g.uni0067
ENCODING 103
SWIDTH 576 0
DWIDTH 14 0
BBX 12 18 1 -5
BITMAP
1E70
3FF0
7FF0
F0F0
E070
E070
E070
E070
E070
F0F0
7FF0
3FF0
1F70
0070
40F0
7FE0
7FE0
3F80
ENDCHAR
STARTCHAR h.uni0068
ENCODING 104
SWIDTH 576 0
DWIDTH 14 0
BBX 11 18 2 0
BITMAP
E000
E000
E000
E000
E000
E780
FFC0
FFE0
F1E0
E0E0
E0E0
E0E0
E0E0
E0E0
E0E0
E0E0
E0E0
E0E0
ENDCHAR
STARTCHAR i.uni0069
ENCODING 105
SWIDTH 576 0
DWIDTH 14 0
BBX 11 20 2 0
BITMAP
0E00
0E00
0E00
0E00
0000
0000
0000
7E00
7E00
7E00
0E00
0E00
0E00
0E00
0E00
0E00
0E00
FFE0
FFE0
FFE0
ENDCHAR
STARTCHAR j.uni006A
ENCODING 106
SWIDTH 576 0
DWIDTH 14 0
BBX 8 25 1 -5
BITMAP
0700
0700
0700
0700
0000
0000
0000
3F00
3F00
3F00
0700
0700
0700
0700
0700
0700
0700
0700
0700
0700
0700
0F00
FF00
FE00
FC00
ENDCHAR
STARTCHAR k.uni006B
ENCODING 107
SWIDTH 576 0
DWIDTH 14 0
BBX 12 18 2 0
BITMAP
E000
E000
E000
E000
E000
E1E0
E3C0
E780
EF00
FE00
FE00
FF00
F700
E780
E3C0
E1C0
E1E0
E0F0
ENDCHAR
STARTCHAR l.uni006C
ENCODING 108
SWIDTH 576 0
DWIDTH 14 0
BBX 11 18 1 0
BITMAP
FC00
FC00
FC00
1C00
1C00
1C00
1C00
1C00
1C00
1C00
1C00
1C00
1C00
1C00
1E00
1FE0
0FE0
07E0
ENDCHAR
STARTCHAR m.uni006D
ENCODING 109
SWIDTH 576 0
DWIDTH 14 0
BBX 12 13 1 0
BITMAP
DDE0
FFF0
FFF0
E670
E670
E670
E670
E670
E670
E670
E670
E670
E670
ENDCHAR
STARTCHAR n.uni006E
ENCODING 110
SWIDTH 576 0
DWIDTH 14 0
BBX 11 13 2 0
BITMAP
E780
FFC0
FFE0
F1E0
E0E0
E0E0
E0E0
E0E0
E0E0
E0E0
E0E0
E0E0
E0E0
ENDCHAR
STARTCHAR o.uni006F
ENCODING 111
SWIDTH 576 0
DWIDTH 14 0
BBX 12 13 1 0
BITMAP
1F80
3FC0
7FE0
F0E0
E070
E070
E070
E070
E070
70E0
7FE0
3FC0
1F80
ENDCHAR
STARTCHAR p.uni0070
ENCODING 112
SWIDTH 576 0
DWIDTH 14 0
BBX 12 18 1 -5
BITMAP
E780
EFC0
FFE0
F0F0
E070
E070
E070
E070
E070
F0F0
FFE0
EFC0
E780
E000
E000
E000
E000
E000
ENDCHAR
STARTCHAR q.uni0071
ENCODING 113
SWIDTH 576 0
DWIDTH 14 0
BBX 12 18 1 -5
BITMAP
1E70
3F70
7FF0
F0F0
E070
E070
E070
E070
E070
F0F0
7FF0
3F70
1E70
0070
0070
0070
0070
0070
ENDCHAR
STARTCHAR r.uni0072
ENCODING 114
SWIDTH 576 0
DWIDTH 14 0
BBX 10 13 3 0
BITMAP
E780
EFC0
FFC0
F840
F000
E000
E000
E000
E000
E000
E000
E000
E000
ENDCHAR
STARTCHAR s.uni0073
ENCODING 115
SWIDTH 576 0
DWIDTH 14 0
BBX 11 13 2 0
BITMAP
3F80
7FC0
FFC0
E040
F800
FF80
7FC0
0FE0
00E0
C0E0
FFE0
FFC0
3F80
ENDCHAR
STARTCHAR t.uni0074
ENCODING 116
SWIDTH 576 0
DWIDTH 14 0
BBX 10 17 1 0
BITMAP
1C00
1C00
1C00
1C00
FFC0
FFC0
FFC0
1C00
1C00
1C00
1C00
1C00
1C00
1C00
1FC0
0FC0
07C0
ENDCHAR
STARTCHAR u.uni0075
ENCODING 117
SWIDTH 576 0
DWIDTH 14 0
BBX 11 13 2 0
BITMAP
E0E0
E0E0
E0E0
E0E0
E0E0
E0E0
E0E0
E0E0
E0E0
F1E0
FFE0
7FE0
3CE0
ENDCHAR
STARTCHAR v.uni0076
ENCODING 118
SWIDTH 576 0
DWIDTH 14 0
BBX 12 13 1 0
BITMAP
E070
F0F0
70E0
70E0
79E0
39C0
39C0
39C0
1F80
1F80
1F80
0F00
0F00
ENDCHAR
STARTCHAR w.uni0077
ENCODING 119
SWIDTH 576 0
DWIDTH 14 0
BBX 14 13 0 0
BITMAP
E01C
E01C
E01C
6318
6798
77B8
77B8
77B8
34B0
3CF0
3CF0
3CF0
3CF0
ENDCHAR
STARTCHAR x.uni0078
ENCODING 120
SWIDTH 576 0
DWIDTH 14 0
BBX 12 13 1 0
BITMAP
F0F0
79E0
39C0
3FC0
1F80
0F00
0F00
1F80
1F80
3FC0
39C0
79E0
F0F0
ENDCHAR
STARTCHAR y.uni0079
ENCODING 121
SWIDTH 576 0
DWIDTH 14 0
BBX 12 18 1 -5
BITMAP
F0F0
70E0
70E0
79E0
39C0
39C0
3DC0
1F80
1F80
0F80
0F00
0F00
0700
0E00
0E00
7E00
7C00
7800
ENDCHAR
STARTCHAR z.uni007A
ENCODING 122
SWIDTH 576 0
DWIDTH 14 0
BBX 11 13 1 0
BITMAP
FFE0
FFE0
FFE0
03C0
0780
0F00
0E00
1E00
3C00
7800
FFE0
FFE0
FFE0
ENDCHAR
STARTCHAR braceleft.uni007B
ENCODING 123
SWIDTH 576 0
DWIDTH 14 0
BBX 9 22 2 -4
BITMAP
0F80
1F80
1C00
1C00
1C00
1C00
1C00
1C00
1C00
3C00
F800
F800
3C00
1C00
1C00
1C00
1C00
1C00
1C00
1C00
1F80
0F80
ENDCHAR
STARTCHAR bar.uni007C
ENCODING 124
SWIDTH 576 0
DWIDTH 14 0
BBX 3 23 6 -5
BITMAP
E000
E000
E000
E000
E000
E000
E000
E000
E000
E000
E000
E000
E000
E000
E000
E000
E000
E000
E000
E000
E000
E000
E000
ENDCHAR
STARTCHAR braceright.uni007D
ENCODING 125
SWIDTH 576 0
DWIDTH 14 0
BBX 10 22 2 -4
BITMAP
F800
FC00
1C00
1C00
1C00
1C00
1C00
1C00
1C00
1E00
0FC0
0FC0
1E00
1C00
1C00
1C00
1C00
1C00
1C00
1C00
FC00
F800
ENDCHAR
STARTCHAR asciitilde.uni007E
ENCODING 126
SWIDTH 576 0
DWIDTH 14 0
BBX 12 4 1 6
BITMAP
7C10
FFF0
FFF0
83E0
ENDCHAR
STARTCHAR nbsp.uni00A0
ENCODING 160
SWIDTH 576 0
DWIDTH 14 0
BBX 0 0 0 0
BITMAP
ENDCHAR
STARTCHAR exclamdown.uni00A1
ENCODING 161
SWIDTH 576 0
DWIDTH 14 0
BBX 3 18 5 0
BITMAP
E000
E000
E000
0000
0000
E000
E000
E000
E000
E000
E000
E000
E000
E000
E000
E000
E000
E000
ENDCHAR
STARTCHAR cent.uni00A2
ENCODING 162
SWIDTH 576 0
DWIDTH 14 0
BBX 10 19 1 -3
BITMAP
0600
0600
0600
1F80
3FC0
7FC0
F640
E600
E600
E600
E600
E600
F640
7FC0
3FC0
1F80
0600
0600
0600
ENDCHAR
STARTCHAR sterling.uni00A3
ENCODING 163
SWIDTH 576 0
DWIDTH 14 0
BBX 11 18 1 0
BITMAP
07C0
0FE0
0FE0
1E20
1C00
1C00
1C00
1C00
7FC0
7FC0
7FC0
1C00
1C00
1C00
1C00
FFE0
FFE0
FFE0
ENDCHAR
STARTCHAR currency.uni00A4
ENCODING 164
SWIDTH 576 0
DWIDTH 14 0
BBX 12 12 1 2
BITMAP
4020
E070
76E0
3FC0
1980
30C0
30C0
1980
3FC0
76E0
E070
4020
ENDCHAR
STARTCHAR yen.uni00A5
ENCODING 165
SWIDTH 576 0
DWIDTH 14 0
BBX 13 18 0 0
BITMAP
F078
7070
70F0
78F0
38E0
3DE0
1DC0
FDF8
FFF8
0F80
0700
FFF8
FFF8
0700
0700
0700
0700
0700
ENDCHAR
STARTCHAR brokenbar.uni00A6
ENCODING 166
SWIDTH 576 0
DWIDTH 14 0
BBX 3 21 6 -4
BITMAP
E000
E000
E000
E000
E000
E000
E000
E000
E000
0000
0000
0000
E000
E000
E000
E000
E000
E000
E000
E000
E000
ENDCHAR
STARTCHAR section.uni00A7
ENCODING 167
SWIDTH 576 0
DWIDTH 14 0
BBX 10 20 2 -2
BITMAP
1F00
3F80
7F80
7080
7000
7800
3C00
7F00
F780
E3C0
E1C0
7BC0
3F80
0F00
0780
0380
4380
7F80
7F00
3E00
ENDCHAR
STARTCHAR dieresis.uni00A8
ENCODING 168
SWIDTH 576 0
DWIDTH 14 0
BBX 8 3 3 16
BITMAP
E700
E700
E700
ENDCHAR
STARTCHAR copyright.uni00A9
ENCODING 169
SWIDTH 576 0
DWIDTH 14 0
BBX 14 14 0 1
BITMAP
0FC0
3FF0
7038
6018
C7CC
CC4C
CC0C
CC0C
CC4C
C7CC
6018
7038
3FF0
0FC0
ENDCHAR
STARTCHAR ordfeminine.uni00AA
ENCODING 170
SWIDTH 576 0
DWIDTH 14 0
BBX 8 13 3 5
BITMAP
3C00
7E00
4300
0300
7F00
FF00
C300
C700
FF00
7B00
0000
7F00
7F00
ENDCHAR
STARTCHAR guillemotleft.uni00AB
ENCODING 171
SWIDTH 576 0
DWIDTH 14 0
BBX 10 11 1 1
BITMAP
0840
18C0
39C0
7380
E700
C600
E700
7380
39C0
18C0
0840
ENDCHAR
STARTCHAR logicalnot.uni00AC
ENCODING 172
SWIDTH 576 0
DWIDTH 14 0
BBX 12 6 1 5
BITMAP
FFF0
FFF0
FFF0
0070
0070
0070
ENDCHAR
STARTCHAR hyphensoft.uni00AD
ENCODING 173
SWIDTH 576 0
DWIDTH 14 0
BBX 7 3 3 5
BITMAP
FE00
FE00
FE00
ENDCHAR
STARTCHAR registered.uni00AE
ENCODING 174
SWIDTH 576 0
DWIDTH 14 0
BBX 14 14 0 1
BITMAP
0FC0
3FF0
7038
6018
CF8C
CCCC
CCCC
CF8C
CCCC
CCCC
6018
7038
3FF0
0FC0
ENDCHAR
STARTCHAR macron.uni00AF
ENCODING 175
SWIDTH 576 0
DWIDTH 14 0
BBX 7 2 3 16
BITMAP
FE00
FE00
ENDCHAR
STARTCHAR degree.uni00B0
ENCODING 176
SWIDTH 576 0
DWIDTH 14 0
BBX 8 8 3 10
BITMAP
3C00
7E00
E700
C300
C300
E700
7E00
3C00
ENDCHAR
STARTCHAR plusminus.uni00B1
ENCODING 177
SWIDTH 576 0
DWIDTH 14 0
BBX 13 15 1 0
BITMAP
0700
0700
0700
0700
FFF8
FFF8
FFF8
0700
0700
0700
0700
0000
FFF8
FFF8
FFF8
ENDCHAR
STARTCHAR twosuperior.uni00B2
ENCODING 178
SWIDTH 576 0
DWIDTH 14 0
BBX 7 10 3 8
BITMAP
7C00
FE00
8600
0600
0C00
1800
3000
6000
FE00
FE00
ENDCHAR
STARTCHAR threesuperior.uni00B3
ENCODING 179
SWIDTH 576 0
DWIDTH 14 0
BBX 8 10 3 8
BITMAP
7C00
FF00
8300
0300
3E00
3E00
0300
8300
FF00
7C00
ENDCHAR
STARTCHAR acute.uni00B4
ENCODING 180
SWIDTH 576 0
DWIDTH 14 0
BBX 6 4 5 15
BITMAP
1C00
3800
7000
E000
ENDCHAR
STARTCHAR micro.uni00B5
ENCODING 181
SWIDTH 576 0
DWIDTH 14 0
BBX 12 18 2 -5
BITMAP
E0E0
E0E0
E0E0
E0E0
E0E0
E0E0
E0E0
E0E0
E0E0
F1E0
FFF0
FF70
EE70
E000
E000
E000
E000
E000
ENDCHAR
STARTCHAR paragraph.uni00B6
ENCODING 182
SWIDTH 576 0
DWIDTH 14 0
BBX 11 20 1 -2
BITMAP
1FE0
7FE0
7E60
FE60
FE60
FE60
FE60
7E60
7E60
1E60
0660
0660
0660
0660
0660
0660
0660
0660
0660
0660
ENDCHAR
STARTCHAR periodcentered.uni00B7
ENCODING 183
SWIDTH 576 0
DWIDTH 14 0
BBX 4 4 5 6
BITMAP
F000
F000
F000
F000
ENDCHAR
STARTCHAR cedilla.uni00B8
ENCODING 184
SWIDTH 576 0
DWIDTH 14 0
BBX 5 5 4 -5
BITMAP
3000
1800
1800
F800
F000
ENDCHAR
STARTCHAR onesuperior.uni00B9
ENCODING 185
SWIDTH 576 0
DWIDTH 14 0
BBX 8 10 3 8
BITMAP
7800
7800
1800
1800
1800
1800
1800
1800
FF00
FF00
ENDCHAR
STARTCHAR ordmasculine.uni00BA
ENCODING 186
SWIDTH 576 0
DWIDTH 14 0
BBX 8 13 3 5
BITMAP
3C00
7E00
E700
C300
C300
C300
C300
E700
7E00
3C00
0000
FF00
FF00
ENDCHAR
STARTCHAR guillemotright.uni00BB
ENCODING 187
SWIDTH 576 0
DWIDTH 14 0
BBX 10 11 2 1
BITMAP
8400
C600
E700
7380
39C0
18C0
39C0
7380
E700
C600
8400
ENDCHAR
STARTCHAR onequarter.uni00BC
ENCODING 188
SWIDTH 576 0
DWIDTH 14 0
BBX 13 23 0 -3
BITMAP
7800
7800
1800
1800
1800
1800
1800
1800
FF00
FF00
0018
01E0
1E00
6060
00E0
01E0
0160
0360
0660
07F0
07F0
0060
0060
ENDCHAR
STARTCHAR onehalf.uni00BD
ENCODING 189
SWIDTH 576 0
DWIDTH 14 0
BBX 13 23 0 -3
BITMAP
7800
7800
1800
1800
1800
1800
1800
1800
FF00
FF00
0018
01E0
1E00
63E0
07F0
0430
0030
0060
00C0
0180
0300
07F0
07F0
ENDCHAR
STARTCHAR threequarters.uni00BE
ENCODING 190
SWIDTH 576 0
DWIDTH 14 0
BBX 13 23 0 -3
BITMAP
7C00
FF00
8300
0300
3E00
3E00
0300
8300
FF00
7C00
0018
01E0
1E00
6060
00E0
01E0
0160
0360
0660
07F0
07F0
0060
0060
ENDCHAR
STARTCHAR questiondown.uni00BF
ENCODING 191
SWIDTH 576 0
DWIDTH 14 0
BBX 9 18 2 0
BITMAP
0E00
0E00
0E00
0000
0E00
0E00
0E00
0E00
1E00
3C00
3800
7000
E000
E000
E080
FF80
7F80
3F00
ENDCHAR
STARTCHAR Agrave.uni00C0
ENCODING 192
SWIDTH 576 0
DWIDTH 14 0
BBX 13 22 0 0
BITMAP
1C00
0E00
0700
0000
0F80
0F80
0F80
0D80
1DC0
1DC0
1DC0
1DC0
38E0
38E0
38E0
3FE0
7FF0
7FF0
7070
7070
F078
E038
ENDCHAR
STARTCHAR Aacute.uni00C1
ENCODING 193
SWIDTH 576 0
DWIDTH 14 0
BBX 13 22 0 0
BITMAP
01C0
0380
0700
0000
0F80
0F80
0F80
0D80
1DC0
1DC0
1DC0
1DC0
38E0
38E0
38E0
3FE0
7FF0
7FF0
7070
7070
F078
E038
ENDCHAR
STARTCHAR Acircumflex.uni00C2
ENCODING 194
SWIDTH 576 0
DWIDTH 14 0
BBX 13 22 0 0
BITMAP
0780
0FC0
1860
0000
0F80
0F80
0F80
0D80
1DC0
1DC0
1DC0
1DC0
38E0
38E0
38E0
3FE0
7FF0
7FF0
7070
7070
F078
E038
ENDCHAR
STARTCHAR Atilde.uni00C3
ENCODING 195
SWIDTH 576 0
DWIDTH 14 0
BBX 13 22 0 0
BITMAP
0E60
1FE0
19C0
0000
0F80
0F80
0F80
0D80
1DC0
1DC0
1DC0
1DC0
38E0
38E0
38E0
3FE0
7FF0
7FF0
7070
7070
F078
E038
ENDCHAR
STARTCHAR Adieresis.uni00C4
ENCODING 196
SWIDTH 576 0
DWIDTH 14 0
BBX 13 22 0 0
BITMAP
1CE0
1CE0
1CE0
0000
0F80
0F80
0F80
0D80
1DC0
1DC0
1DC0
1DC0
38E0
38E0
38E0
3FE0
7FF0
7FF0
7070
7070
F078
E038
ENDCHAR
STARTCHAR Aring.uni00C5
ENCODING 197
SWIDTH 576 0
DWIDTH 14 0
BBX 13 22 1 0
BITMAP
0700
1FC0
18C0
18C0
0F80
0F80
0F80
1DC0
1DC0
1DC0
1DC0
1DC0
38E0
38E0
38E0
3FE0
7FF0
7FF0
7070
7070
F078
E038
ENDCHAR
STARTCHAR AE.uni00C6
ENCODING 198
SWIDTH 576 0
DWIDTH 14 0
BBX 13 18 0 0
BITMAP
0FF8
0FF8
1FF8
1DC0
1DC0
1DC0
19C0
39F0
39F0
39F0
31C0
7FC0
7FC0
7FC0
71C0
61F8
E1F8
E1F8
ENDCHAR
STARTCHAR Ccedilla.uni00C7
ENCODING 199
SWIDTH 576 0
DWIDTH 14 0
BBX 11 23 2 -5
BITMAP
0FC0
1FE0
3FE0
7860
7020
F000
E000
E000
E000
E000
E000
E000
F000
7020
7860
3FE0
1FE0
0FC0
0600
0300
0300
1F00
1E00
ENDCHAR
STARTCHAR Egrave.uni00C8
ENCODING 200
SWIDTH 576 0
DWIDTH 14 0
BBX 11 22 2 0
BITMAP
7000
3800
1C00
0000
FFE0
FFE0
FFE0
E000
E000
E000
E000
FFC0
FFC0
FFC0
E000
E000
E000
E000
E000
FFE0
FFE0
FFE0
ENDCHAR
STARTCHAR Eacute.uni00C9
ENCODING 201
SWIDTH 576 0
DWIDTH 14 0
BBX 11 22 2 0
BITMAP
0700
0E00
1C00
0000
FFE0
FFE0
FFE0
E000
E000
E000
E000
FFC0
FFC0
FFC0
E000
E000
E000
E000
E000
FFE0
FFE0
FFE0
ENDCHAR
STARTCHAR Ecircumflex.uni00CA
ENCODING 202
SWIDTH 576 0
DWIDTH 14 0
BBX 11 22 2 0
BITMAP
1E00
3F00
6180
0000
FFE0
FFE0
FFE0
E000
E000
E000
E000
FFC0
FFC0
FFC0
E000
E000
E000
E000
E000
FFE0
FFE0
FFE0
ENDCHAR
STARTCHAR Edieresis.uni00CB
ENCODING 203
SWIDTH 576 0
DWIDTH 14 0
BBX 11 22 2 0
BITMAP
7380
7380
7380
0000
FFE0
FFE0
FFE0
E000
E000
E000
E000
FFC0
FFC0
FFC0
E000
E000
E000
E000
E000
FFE0
FFE0
FFE0
ENDCHAR
STARTCHAR Igrave.uni00CC
ENCODING 204
SWIDTH 576 0
DWIDTH 14 0
BBX 9 22 2 0
BITMAP
7000
3800
1C00
0000
FF80
FF80
FF80
1C00
1C00
1C00
1C00
1C00
1C00
1C00
1C00
1C00
1C00
1C00
1C00
FF80
FF80
FF80
ENDCHAR
STARTCHAR Iacute.uni00CD
ENCODING 205
SWIDTH 576 0
DWIDTH 14 0
BBX 9 22 2 0
BITMAP
0700
0E00
1C00
0000
FF80
FF80
FF80
1C00
1C00
1C00
1C00
1C00
1C00
1C00
1C00
1C00
1C00
1C00
1C00
FF80
FF80
FF80
ENDCHAR
STARTCHAR Icircumflex.uni00CE
ENCODING 206
SWIDTH 576 0
DWIDTH 14 0
BBX 9 22 2 0
BITMAP
1E00
3F00
6180
0000
FF80
FF80
FF80
1C00
1C00
1C00
1C00
1C00
1C00
1C00
1C00
1C00
1C00
1C00
1C00
FF80
FF80
FF80
ENDCHAR
STARTCHAR Idieresis.uni00CF
ENCODING 207
SWIDTH 576 0
DWIDTH 14 0
BBX 9 22 2 0
BITMAP
7380
7380
7380
0000
FF80
FF80
FF80
1C00
1C00
1C00
1C00
1C00
1C00
1C00
1C00
1C00
1C00
1C00
1C00
FF80
FF80
FF80
ENDCHAR
STARTCHAR Eth.uni00D0
ENCODING 208
SWIDTH 576 0
DWIDTH 14 0
BBX 14 18 0 0
BITMAP
3F80
3FE0
3FF0
3878
3838
383C
381C
FF1C
FF1C
FF1C
381C
381C
383C
3838
3878
3FF0
3FE0
3F80
ENDCHAR
STARTCHAR Ntilde.uni00D1
ENCODING 209
SWIDTH 576 0
DWIDTH 14 0
BBX 11 22 1 0
BITMAP
1CC0
3FC0
3380
0000
F0E0
F0E0
F0E0
F8E0
F8E0
F8E0
ECE0
ECE0
ECE0
E6E0
E6E0
E6E0
E3E0
E3E0
E3E0
E1E0
E1E0
E1E0
ENDCHAR
STARTCHAR Ograve.uni00D2
ENCODING 210
SWIDTH 576 0
DWIDTH 14 0
BBX 12 22 1 0
BITMAP
3800
1C00
0E00
0000
0F00
3FC0
7FE0
70E0
70E0
E070
E070
E070
E070
E070
E070
E070
E070
70E0
70E0
7FE0
3FC0
0F00
ENDCHAR
STARTCHAR Oacute.uni00D3
ENCODING 211
SWIDTH 576 0
DWIDTH 14 0
BBX 12 22 1 0
BITMAP
0380
0700
0E00
0000
0F00
3FC0
7FE0
70E0
70E0
E070
E070
E070
E070
E070
E070
E070
E070
70E0
70E0
7FE0
3FC0
0F00
ENDCHAR
STARTCHAR Ocircumflex.uni00D4
ENCODING 212
SWIDTH 576 0
DWIDTH 14 0
BBX 12 22 1 0
BITMAP
0F00
1F80
30C0
0000
0F00
3FC0
7FE0
70E0
70E0
E070
E070
E070
E070
E070
E070
E070
E070
70E0
70E0
7FE0
3FC0
0F00
ENDCHAR
STARTCHAR Otilde.uni00D5
ENCODING 213
SWIDTH 576 0
DWIDTH 14 0
BBX 12 22 1 0
BITMAP
1CC0
3FC0
3380
0000
0F00
3FC0
7FE0
70E0
70E0
E070
E070
E070
E070
E070
E070
E070
E070
70E0
70E0
7FE0
3FC0
0F00
ENDCHAR
STARTCHAR Odieresis.uni00D6
ENCODING 214
SWIDTH 576 0
DWIDTH 14 0
BBX 12 22 1 0
BITMAP
39C0
39C0
39C0
0000
0F00
3FC0
7FE0
70E0
70E0
E070
E070
E070
E070
E070
E070
E070
E070
70E0
70E0
7FE0
3FC0
0F00
ENDCHAR
STARTCHAR multiply.uni00D7
ENCODING 215
SWIDTH 576 0
DWIDTH 14 0
BBX 11 12 1 1
BITMAP
4040
E0E0
F1E0
7BC0
3F80
1F00
1F00
3F80
7BC0
F1E0
E0E0
4040
ENDCHAR
STARTCHAR Oslash.uni00D8
ENCODING 216
SWIDTH 576 0
DWIDTH 14 0
BBX 13 18 0 0
BITMAP
07C8
1FF8
3FF8
38F0
3878
70F8
71F8
73F8
73B8
7738
7E38
7C38
7C38
7870
3870
7FF0
FFE0
CF80
ENDCHAR
STARTCHAR Ugrave.uni00D9
ENCODING 217
SWIDTH 576 0
DWIDTH 14 0
BBX 11 22 1 0
BITMAP
3800
1C00
0E00
0000
E0E0
E0E0
E0E0
E0E0
E0E0
E0E0
E0E0
E0E0
E0E0
E0E0
E0E0
E0E0
E0E0
E0E0
F1E0
7FC0
7FC0
1F00
ENDCHAR
STARTCHAR Uacute.uni00DA
ENCODING 218
SWIDTH 576 0
DWIDTH 14 0
BBX 11 22 1 0
BITMAP
0380
0700
0E00
0000
E0E0
E0E0
E0E0
E0E0
E0E0
E0E0
E0E0
E0E0
E0E0
E0E0
E0E0
E0E0
E0E0
E0E0
F1E0
7FC0
7FC0
1F00
ENDCHAR
STARTCHAR Ucircumflex.uni00DB
ENCODING 219
SWIDTH 576 0
DWIDTH 14 0
BBX 11 22 1 0
BITMAP
0F00
1F80
30C0
0000
E0E0
E0E0
E0E0
E0E0
E0E0
E0E0
E0E0
E0E0
E0E0
E0E0
E0E0
E0E0
E0E0
E0E0
F1E0
7FC0
7FC0
1F00
ENDCHAR
STARTCHAR Udieresis.uni00DC
ENCODING 220
SWIDTH 576 0
DWIDTH 14 0
BBX 11 22 1 0
BITMAP
39C0
39C0
39C0
0000
E0E0
E0E0
E0E0
E0E0
E0E0
E0E0
E0E0
E0E0
E0E0
E0E0
E0E0
E0E0
E0E0
E0E0
F1E0
7FC0
7FC0
1F00
ENDCHAR
STARTCHAR Yacute.uni00DD
ENCODING 221
SWIDTH 576 0
DWIDTH 14 0
BBX 13 22 0 0
BITMAP
01C0
0380
0700
0000
F078
7070
78F0
38E0
38E0
1DC0
1DC0
1FC0
0F80
0F80
0700
0700
0700
0700
0700
0700
0700
0700
ENDCHAR
STARTCHAR Thorn.uni00DE
ENCODING 222
SWIDTH 576 0
DWIDTH 14 0
BBX 11 18 2 0
BITMAP
E000
E000
E000
FF00
FFC0
FFC0
E1E0
E0E0
E0E0
E0E0
E1E0
FFC0
FFC0
FF00
E000
E000
E000
E000
ENDCHAR
STARTCHAR germandbls.uni00DF
ENCODING 223
SWIDTH 576 0
DWIDTH 14 0
BBX 12 18 1 0
BITMAP
1F00
7F80
FFC0
F1C0
E1C0
E380
E780
EE00
EF00
EF80
E7C0
E1E0
E0F0
E070
E870
EFF0
EFE0
E7C0
ENDCHAR
STARTCHAR agrave.uni00E0
ENCODING 224
SWIDTH 576 0
DWIDTH 14 0
BBX 12 19 1 0
BITMAP
7000
3800
1C00
0E00
0000
0000
3F80
7FE0
7FE0
60F0
0070
3FF0
7FF0
FFF0
E070
E0F0
FFF0
7FF0
3E70
ENDCHAR
STARTCHAR aacute.uni00E1
ENCODING 225
SWIDTH 576 0
DWIDTH 14 0
BBX 12 19 1 0
BITMAP
01C0
0380
0700
0E00
0000
0000
3F80
7FE0
7FE0
60F0
0070
3FF0
7FF0
FFF0
E070
E0F0
FFF0
7FF0
3E70
ENDCHAR
STARTCHAR acircumflex.uni00E2
ENCODING 226
SWIDTH 576 0
DWIDTH 14 0
BBX 12 19 1 0
BITMAP
0600
0F00
1F80
30C0
0000
0000
3F80
7FE0
7FE0
60F0
0070
3FF0
7FF0
FFF0
E070
E0F0
FFF0
7FF0
3E70
ENDCHAR
STARTCHAR atilde.uni00E3
ENCODING 227
SWIDTH 576 0
DWIDTH 14 0
BBX 12 19 1 0
BITMAP
1CC0
3EC0
37C0
3380
0000
0000
3F80
7FE0
7FE0
60F0
0070
3FF0
7FF0
FFF0
E070
E0F0
FFF0
7FF0
3E70
ENDCHAR
STARTCHAR adieresis.uni00E4
ENCODING 228
SWIDTH 576 0
DWIDTH 14 0
BBX 12 19 1 0
BITMAP
39C0
39C0
39C0
0000
0000
0000
3F80
7FE0
7FE0
60F0
0070
3FF0
7FF0
FFF0
E070
E0F0
FFF0
7FF0
3E70
ENDCHAR
STARTCHAR aring.uni00E5
ENCODING 229
SWIDTH 576 0
DWIDTH 14 0
BBX 12 22 1 0
BITMAP
0F00
0F00
1980
1980
1980
0F00
0F00
0000
0000
3F80
7FE0
7FE0
60F0
0070
3FF0
7FF0
FFF0
E070
E0F0
FFF0
7FF0
3E70
ENDCHAR
STARTCHAR ae.uni00E6
ENCODING 230
SWIDTH 576 0
DWIDTH 14 0
BBX 13 13 0 0
BITMAP
3DE0
7DF0
7FF8
4738
0738
3FF8
7FF8
FFF8
E700
E788
FFF8
7DF8
38F0
ENDCHAR
STARTCHAR ccedilla.uni00E7
ENCODING 231
SWIDTH 576 0
DWIDTH 14 0
BBX 11 18 2 -5
BITMAP
0FC0
3FE0
7FE0
7820
F000
E000
E000
E000
E000
7820
7FE0
3FE0
0FC0
0600
0300
0300
1F00
1E00
ENDCHAR
STARTCHAR egrave.uni00E8
ENCODING 232
SWIDTH 576 0
DWIDTH 14 0
BBX 12 19 1 0
BITMAP
7000
3800
1C00
0E00
0000
0000
1F80
3FC0
7FE0
70E0
E070
FFF0
FFF0
FFF0
E000
7020
7FE0
3FE0
1FC0
ENDCHAR
STARTCHAR eacute.uni00E9
ENCODING 233
SWIDTH 576 0
DWIDTH 14 0
BBX 12 19 1 0
BITMAP
01C0
0380
0700
0E00
0000
0000
1F80
3FC0
7FE0
70E0
E070
FFF0
FFF0
FFF0
E000
7020
7FE0
3FE0
1FC0
ENDCHAR
STARTCHAR ecircumflex.uni00EA
ENCODING 234
SWIDTH 576 0
DWIDTH 14 0
BBX 12 19 1 0
BITMAP
0600
0F00
1F80
30C0
0000
0000
1F80
3FC0
7FE0
70E0
E070
FFF0
FFF0
FFF0
E000
7020
7FE0
3FE0
1FC0
ENDCHAR
STARTCHAR edieresis.uni00EB
ENCODING 235
SWIDTH 576 0
DWIDTH 14 0
BBX 12 19 1 0
BITMAP
39C0
39C0
39C0
0000
0000
0000
1F80
3FC0
7FE0
70E0
E070
FFF0
FFF0
FFF0
E000
7020
7FE0
3FE0
1FC0
ENDCHAR
STARTCHAR igrave.uni00EC
ENCODING 236
SWIDTH 576 0
DWIDTH 14 0
BBX 11 19 2 0
BITMAP
E000
7000
3800
1C00
0000
0000
7E00
7E00
7E00
0E00
0E00
0E00
0E00
0E00
0E00
0E00
FFE0
FFE0
FFE0
ENDCHAR
STARTCHAR iacute.uni00ED
ENCODING 237
SWIDTH 576 0
DWIDTH 14 0
BBX 11 19 2 0
BITMAP
0380
0700
0E00
1C00
0000
0000
7E00
7E00
7E00
0E00
0E00
0E00
0E00
0E00
0E00
0E00
FFE0
FFE0
FFE0
ENDCHAR
STARTCHAR icircumflex.uni00EE
ENCODING 238
SWIDTH 576 0
DWIDTH 14 0
BBX 11 19 2 0
BITMAP
0C00
1E00
3F00
6180
0000
0000
7E00
7E00
7E00
0E00
0E00
0E00
0E00
0E00
0E00
0E00
FFE0
FFE0
FFE0
ENDCHAR
STARTCHAR idieresis.uni00EF
ENCODING 239
SWIDTH 576 0
DWIDTH 14 0
BBX 11 19 2 0
BITMAP
7380
7380
7380
0000
0000
0000
7E00
7E00
7E00
0E00
0E00
0E00
0E00
0E00
0E00
0E00
FFE0
FFE0
FFE0
ENDCHAR
STARTCHAR eth.uni00F0
ENCODING 240
SWIDTH 576 0
DWIDTH 14 0
BBX 12 18 1 0
BITMAP
1C60
0FE0
0F80
7F80
6380
01C0
1FE0
3FE0
7FF0
F070
E070
E070
E070
E070
F0E0
7FE0
3FC0
1F80
ENDCHAR
STARTCHAR ntilde.uni00F1
ENCODING 241
SWIDTH 576 0
DWIDTH 14 0
BBX 11 19 2 0
BITMAP
3980
7D80
6F80
6700
0000
0000
E780
FFC0
FFE0
F1E0
E0E0
E0E0
E0E0
E0E0
E0E0
E0E0
E0E0
E0E0
E0E0
ENDCHAR
STARTCHAR ograve.uni00F2
ENCODING 242
SWIDTH 576 0
DWIDTH 14 0
BBX 12 18 1 0
BITMAP
7000
3800
1C00
0E00
0000
1F80
3FC0
7FE0
70E0
E070
E070
E070
E070
E070
70E0
7FE0
3FC0
1F80
ENDCHAR
STARTCHAR oacute.uni00F3
ENCODING 243
SWIDTH 576 0
DWIDTH 14 0
BBX 12 18 1 0
BITMAP
01C0
0380
0700
0E00
0000
1F80
3FC0
7FE0
70E0
E070
E070
E070
E070
E070
70E0
7FE0
3FC0
1F80
ENDCHAR
STARTCHAR ocircumflex.uni00F4
ENCODING 244
SWIDTH 576 0
DWIDTH 14 0
BBX 12 18 1 0
BITMAP
0600
0F00
1980
30C0
0000
1F80
3FC0
7FE0
70E0
E070
E070
E070
E070
E070
70E0
7FE0
3FC0
1F80
ENDCHAR
STARTCHAR otilde.uni00F5
ENCODING 245
SWIDTH 576 0
DWIDTH 14 0
BBX 12 18 1 0
BITMAP
1C40
3FC0
2380
0000
0000
1F80
3FC0
7FE0
70E0
E070
E070
E070
E070
E070
70E0
7FE0
3FC0
1F80
ENDCHAR
STARTCHAR odieresis.uni00F6
ENCODING 246
SWIDTH 576 0
DWIDTH 14 0
BBX 12 18 1 0
BITMAP
39C0
39C0
39C0
0000
0000
1F80
3FC0
7FE0
70E0
E070
E070
E070
E070
E070
70E0
7FE0
3FC0
1F80
ENDCHAR
STARTCHAR divide.uni00F7
ENCODING 247
SWIDTH 576 0
DWIDTH 14 0
BBX 11 14 1 0
BITMAP
0E00
0E00
0E00
0E00
0000
FFE0
FFE0
FFE0
0000
0000
0E00
0E00
0E00
0E00
ENDCHAR
STARTCHAR oslash.uni00F8
ENCODING 248
SWIDTH 576 0
DWIDTH 14 0
BBX 13 15 1 -1
BITMAP
0010
1FB8
3FF0
7FE0
F0E0
E1F0
E7F0
EF70
FC70
F870
70F0
7FE0
FFC0
DF80
8000
ENDCHAR
STARTCHAR ugrave.uni00F9
ENCODING 249
SWIDTH 576 0
DWIDTH 14 0
BBX 11 19 2 0
BITMAP
E000
7000
3800
1C00
0000
0000
E0E0
E0E0
E0E0
E0E0
E0E0
E0E0
E0E0
E0E0
E0E0
F1E0
FFE0
7FE0
3CE0
ENDCHAR
STARTCHAR uacute.uni00FA
ENCODING 250
SWIDTH 576 0
DWIDTH 14 0
BBX 11 19 2 0
BITMAP
0380
0700
0E00
1C00
0000
0000
E0E0
E0E0
E0E0
E0E0
E0E0
E0E0
E0E0
E0E0
E0E0
F1E0
FFE0
7FE0
3CE0
ENDCHAR
STARTCHAR ucircumflex.uni00FB
ENCODING 251
SWIDTH 576 0
DWIDTH 14 0
BBX 11 19 2 0
BITMAP
0E00
1F00
3B80
60C0
0000
0000
E0E0
E0E0
E0E0
E0E0
E0E0
E0E0
E0E0
E0E0
E0E0
F1E0
FFE0
7FE0
3CE0
ENDCHAR
STARTCHAR udieresis.uni00FC
ENCODING 252
SWIDTH 576 0
DWIDTH 14 0
BBX 11 19 2 0
BITMAP
7380
7380
7380
0000
0000
0000
E0E0
E0E0
E0E0
E0E0
E0E0
E0E0
E0E0
E0E0
E0E0
F1E0
FFE0
7FE0
3CE0
ENDCHAR
STARTCHAR yacute.uni00FD
ENCODING 253
SWIDTH 576 0
DWIDTH 14 0
BBX 12 24 1 -5
BITMAP
01C0
0380
0700
0E00
0000
0000
F0F0
70E0
70E0
79E0
39C0
39C0
3DC0
1F80
1F80
0F80
0F00
0F00
0700
0E00
0E00
7E00
7C00
7800
ENDCHAR
STARTCHAR thorn.uni00FE
ENCODING 254
SWIDTH 576 0
DWIDTH 14 0
BBX 12 23 1 -5
BITMAP
E000
E000
E000
E000
E000
E780
EFC0
FFE0
F0F0
E070
E070
E070
E070
E070
F0F0
FFE0
EFC0
E780
E000
E000
E000
E000
E000
ENDCHAR
STARTCHAR ydieresis.uni00FF
ENCODING 255
SWIDTH 576 0
DWIDTH 14 0
BBX 12 24 1 -5
BITMAP
39C0
39C0
39C0
0000
0000
0000
F0F0
70E0
70E0
79E0
39C0
39C0
3DC0
1F80
1F80
0F80
0F00
0F00
0700
0E00
0E00
7E00
7C00
7800
ENDCHAR
STARTCHAR Cacute.uni0106
ENCODING 262
SWIDTH 576 0
DWIDTH 14 0
BBX 11 22 2 0
BITMAP
01C0
0380
0700
0000
0FC0
1FE0
3FE0
7860
7020
F000
E000
E000
E000
E000
E000
E000
F000
7020
7860
3FE0
1FE0
0FC0
ENDCHAR
STARTCHAR cacute.uni0107
ENCODING 263
SWIDTH 576 0
DWIDTH 14 0
BBX 11 19 2 0
BITMAP
01C0
0380
0700
0E00
0000
0000
0FC0
3FE0
7FE0
7820
F000
E000
E000
E000
E000
7820
7FE0
3FE0
0FC0
ENDCHAR
STARTCHAR Ccaron.uni010C
ENCODING 268
SWIDTH 576 0
DWIDTH 14 0
BBX 11 22 2 0
BITMAP
1860
0FC0
0780
0000
0FC0
1FE0
3FE0
7860
7020
F000
E000
E000
E000
E000
E000
E000
F000
7020
7860
3FE0
1FE0
0FC0
ENDCHAR
STARTCHAR ccaron.uni010D
ENCODING 269
SWIDTH 576 0
DWIDTH 14 0
BBX 11 19 2 0
BITMAP
30C0
1980
0F00
0F00
0000
0000
0FC0
3FE0
7FE0
7820
F000
E000
E000
E000
E000
7820
7FE0
3FE0
0FC0
ENDCHAR
STARTCHAR dcroat.uni0111
ENCODING 273
SWIDTH 576 0
DWIDTH 14 0
BBX 13 18 1 0
BITMAP
0070
0070
03F8
03F8
0070
1E70
3F70
7FF0
F0F0
E070
E070
E070
E070
E070
F0F0
7FF0
3F70
1E70
ENDCHAR
STARTCHAR Gbreve.uni011E
ENCODING 286
SWIDTH 576 0
DWIDTH 14 0
BBX 12 22 1 0
BITMAP
30C0
3FC0
0F00
0000
0FC0
1FE0
3FE0
7860
7000
F000
E000
E000
E1F0
E1F0
E1F0
E070
F070
7070
7870
3FF0
1FF0
0FC0
ENDCHAR
STARTCHAR gbreve.uni011F
ENCODING 287
SWIDTH 576 0
DWIDTH 14 0
BBX 12 24 1 -5
BITMAP
30C0
3FC0
0F00
0000
0000
0000
1E70
3FF0
7FF0
F0F0
E070
E070
E070
E070
E070
F0F0
7FF0
3FF0
1F70
0070
40F0
7FE0
7FE0
3F80
ENDCHAR
STARTCHAR Idotaccent.uni0130
ENCODING 304
SWIDTH 576 0
DWIDTH 14 0
BBX 9 22 2 0
BITMAP
1C00
1C00
1C00
0000
FF80
FF80
FF80
1C00
1C00
1C00
1C00
1C00
1C00
1C00
1C00
1C00
1C00
1C00
1C00
FF80
FF80
FF80
ENDCHAR
STARTCHAR dotlessi.uni0131
ENCODING 305
SWIDTH 576 0
DWIDTH 14 0
BBX 11 13 2 0
BITMAP
7E00
7E00
7E00
0E00
0E00
0E00
0E00
0E00
0E00
0E00
FFE0
FFE0
FFE0
ENDCHAR
STARTCHAR Lslash.uni0141
ENCODING 321
SWIDTH 576 0
DWIDTH 14 0
BBX 13 18 0 0
BITMAP
1C00
1C00
1C00
1C00
1C80
1DC0
1F80
1F00
1E00
3C00
FC00
FC00
5C00
1C00
1C00
1FF8
1FF8
1FF8
ENDCHAR
STARTCHAR lslash.uni0142
ENCODING 322
SWIDTH 576 0
DWIDTH 14 0
BBX 12 18 1 0
BITMAP
7E00
7E00
7E00
0E00
0E60
0FE0
0FC0
0F00
1E00
3E00
FE00
EE00
0E00
0E00
0F00
0FF0
07F0
03F0
ENDCHAR
STARTCHAR OE.uni0152
ENCODING 338
SWIDTH 576 0
DWIDTH 14 0
BBX 13 18 1 0
BITMAP
1FF8
3FF8
7FF8
7380
E380
E380
E380
E3F8
E3F8
E3F8
E380
E380
E380
E380
7380
7FF8
3FF8
1FF8
ENDCHAR
STARTCHAR oe.uni0153
ENCODING 339
SWIDTH 576 0
DWIDTH 14 0
BBX 14 13 0 0
BITMAP
3CF0
7EF8
7FFC
E39C
E39C
E3FC
E3FC
E3FC
E380
E3C4
7FFC
7EFC
3C78
ENDCHAR
STARTCHAR Scedilla.uni015E
ENCODING 350
SWIDTH 576 0
DWIDTH 14 0
BBX 11 23 2 -5
BITMAP
1F80
7FC0
7FC0
F0C0
E040
E000
F000
7E00
7F80
1FC0
07E0
01E0
00E0
80E0
E1E0
FFC0
FFC0
7F00
0C00
0600
0600
3E00
3C00
ENDCHAR
STARTCHAR scedilla.uni015F
ENCODING 351
SWIDTH 576 0
DWIDTH 14 0
BBX 11 18 2 -5
BITMAP
3F80
7FC0
FFC0
E040
F800
FF80
7FC0
0FE0
00E0
C0E0
FFE0
FFC0
3F80
0C00
0600
0600
3E00
3C00
ENDCHAR
STARTCHAR Scaron.uni0160
ENCODING 352
SWIDTH 576 0
DWIDTH 14 0
BBX 11 22 2 0
BITMAP
6180
3F00
1E00
0000
1F80
7FC0
7FC0
F0C0
E040
E000
F000
7E00
7F80
1FC0
07E0
01E0
00E0
80E0
E1E0
FFC0
FFC0
7F00
ENDCHAR
STARTCHAR scaron.uni0161
ENCODING 353
SWIDTH 576 0
DWIDTH 14 0
BBX 11 19 2 0
BITMAP
6180
3300
1E00
1E00
0000
0000
3F80
7FC0
FFC0
E040
F800
FF80
7FC0
0FE0
00E0
C0E0
FFE0
FFC0
3F80
ENDCHAR
STARTCHAR Ydieresis.uni0178
ENCODING 376
SWIDTH 576 0
DWIDTH 14 0
BBX 13 22 0 0
BITMAP
1CE0
1CE0
1CE0
0000
F078
7070
78F0
38E0
38E0
1DC0
1DC0
1FC0
0F80
0F80
0700
0700
0700
0700
0700
0700
0700
0700
ENDCHAR
STARTCHAR Zcaron.uni017D
ENCODING 381
SWIDTH 576 0
DWIDTH 14 0
BBX 12 22 1 0
BITMAP
30C0
1F80
0F00
0000
FFF0
FFF0
FFF0
00F0
01E0
03C0
03C0
0780
0F00
0F00
1E00
3C00
3800
7800
F000
FFF0
FFF0
FFF0
ENDCHAR
STARTCHAR zcaron.uni017E
ENCODING 382
SWIDTH 576 0
DWIDTH 14 0
BBX 11 19 1 0
BITMAP
30C0
1980
0F00
0F00
0000
0000
FFE0
FFE0
FFE0
03C0
0780
0F00
0E00
1E00
3C00
7800
FFE0
FFE0
FFE0
ENDCHAR
STARTCHAR florin.uni0192
ENCODING 402
SWIDTH 576 0
DWIDTH 14 0
BBX 13 23 0 -5
BITMAP
00F0
01F8
01F8
03C8
0380
0380
0380
0380
3FE0
3FE0
3FE0
0700
0700
0700
0700
0700
0E00
0E00
0E00
9E00
FE00
FC00
7800
ENDCHAR
STARTCHAR circumflex.uni02C6
ENCODING 710
SWIDTH 576 0
DWIDTH 14 0
BBX 8 4 3 15
BITMAP
3C00
3C00
6600
C300
ENDCHAR
STARTCHAR caron.uni02C7
ENCODING 711
SWIDTH 576 0
DWIDTH 14 0
BBX 8 4 3 15
BITMAP
C300
6600
3C00
3C00
ENDCHAR
STARTCHAR breve.uni02D8
ENCODING 728
SWIDTH 576 0
DWIDTH 14 0
BBX 8 3 3 16
BITMAP
C300
FF00
3C00
ENDCHAR
STARTCHAR dotaccent.uni02D9
ENCODING 729
SWIDTH 576 0
DWIDTH 14 0
BBX 3 3 5 16
BITMAP
E000
E000
E000
ENDCHAR
STARTCHAR ring.uni02DA
ENCODING 730
SWIDTH 576 0
DWIDTH 14 0
BBX 6 7 4 15
BITMAP
7800
7800
CC00
CC00
CC00
7800
7800
ENDCHAR
STARTCHAR ogonek.uni02DB
ENCODING 731
SWIDTH 576 0
DWIDTH 14 0
BBX 5 5 5 -5
BITMAP
6000
C000
C000
F800
7800
ENDCHAR
STARTCHAR tilde.uni02DC
ENCODING 732
SWIDTH 576 0
DWIDTH 14 0
BBX 8 4 3 15
BITMAP
7300
FB00
DF00
CE00
ENDCHAR
STARTCHAR hungarumlaut.uni02DD
ENCODING 733
SWIDTH 576 0
DWIDTH 14 0
BBX 9 4 3 15
BITMAP
3B80
7300
6600
CC00
ENDCHAR
STARTCHAR uni03A9.uni03A9
ENCODING 937
SWIDTH 576 0
DWIDTH 14 0
BBX 12 17 1 0
BITMAP
0F00
3FC0
7FE0
79E0
F0E0
E070
E070
E070
E070
E070
E070
E070
70E0
70E0
39C0
F9F0
F9F0
ENDCHAR
STARTCHAR pi.uni03C0
ENCODING 960
SWIDTH 576 0
DWIDTH 14 0
BBX 13 13 0 0
BITMAP
FFF8
FFF8
FFF8
38E0
38E0
38E0
38E0
38E0
38E0
38E0
38F8
38F8
3878
ENDCHAR
STARTCHAR endash.uni2013
ENCODING 8211
SWIDTH 576 0
DWIDTH 14 0
BBX 8 3 3 5
BITMAP
FF00
FF00
FF00
ENDCHAR
STARTCHAR emdash.uni2014
ENCODING 8212
SWIDTH 576 0
DWIDTH 14 0
BBX 12 3 1 5
BITMAP
FFF0
FFF0
FFF0
ENDCHAR
STARTCHAR quoteleft.uni2018
ENCODING 8216
SWIDTH 576 0
DWIDTH 14 0
BBX 5 8 5 10
BITMAP
1800
3800
7000
7000
F000
F000
F000
F000
ENDCHAR
STARTCHAR quoteright.uni2019
ENCODING 8217
SWIDTH 576 0
DWIDTH 14 0
BBX 5 8 5 10
BITMAP
7800
7800
7800
7800
7000
7000
E000
C000
ENDCHAR
STARTCHAR quotesinglbase.uni201A
ENCODING 8218
SWIDTH 576 0
DWIDTH 14 0
BBX 5 8 4 -4
BITMAP
7800
7800
7800
7800
7000
7000
E000
C000
ENDCHAR
STARTCHAR quotedblleft.uni201C
ENCODING 8220
SWIDTH 576 0
DWIDTH 14 0
BBX 11 8 2 10
BITMAP
1860
38E0
71C0
71C0
F3C0
F3C0
F3C0
F3C0
ENDCHAR
STARTCHAR quotedblright.uni201D
ENCODING 8221
SWIDTH 576 0
DWIDTH 14 0
BBX 11 8 2 10
BITMAP
79E0
79E0
79E0
79E0
71C0
71C0
E380
C300
ENDCHAR
STARTCHAR quotedblbase.uni201E
ENCODING 8222
SWIDTH 576 0
DWIDTH 14 0
BBX 11 8 2 -4
BITMAP
79E0
79E0
79E0
79E0
71C0
71C0
E380
C300
ENDCHAR
STARTCHAR dagger.uni2020
ENCODING 8224
SWIDTH 576 0
DWIDTH 14 0
BBX 11 20 1 -2
BITMAP
0E00
0E00
0E00
0E00
0E00
FFE0
FFE0
FFE0
0E00
0E00
0E00
0E00
0E00
0E00
0E00
0E00
0E00
0E00
0E00
0E00
ENDCHAR
STARTCHAR daggerdbl.uni2021
ENCODING 8225
SWIDTH 576 0
DWIDTH 14 0
BBX 11 20 1 -2
BITMAP
0E00
0E00
0E00
0E00
0E00
FFE0
FFE0
FFE0
0E00
0E00
0E00
0E00
FFE0
FFE0
FFE0
0E00
0E00
0E00
0E00
0E00
ENDCHAR
STARTCHAR bullet.uni2022
ENCODING 8226
SWIDTH 576 0
DWIDTH 14 0
BBX 8 8 3 5
BITMAP
3C00
7E00
FF00
FF00
FF00
FF00
7E00
3C00
ENDCHAR
STARTCHAR ellipsis.uni2026
ENCODING 8230
SWIDTH 576 0
DWIDTH 14 0
BBX 11 4 1 0
BITMAP
EEE0
EEE0
EEE0
EEE0
ENDCHAR
STARTCHAR perthousand.uni2030
ENCODING 8240
SWIDTH 576 0
DWIDTH 14 0
BBX 14 18 0 0
BITMAP
7800
FC00
CC00
CC00
CC00
FC38
78E0
0380
0E00
3800
0000
3C78
7EFC
66CC
66CC
66CC
7EFC
3C78
ENDCHAR
STARTCHAR guilsinglleft.uni2039
ENCODING 8249
SWIDTH 576 0
DWIDTH 14 0
BBX 5 11 4 1
BITMAP
0800
1800
3800
7000
E000
C000
E000
7000
3800
1800
0800
ENDCHAR
STARTCHAR guilsinglright.uni203A
ENCODING 8250
SWIDTH 576 0
DWIDTH 14 0
BBX 5 11 5 1
BITMAP
8000
C000
E000
7000
3800
1800
3800
7000
E000
C000
8000
ENDCHAR
STARTCHAR Euro.uni20AC
ENCODING 8364
SWIDTH 576 0
DWIDTH 14 0
BBX 12 18 0 0
BITMAP
03E0
0FF0
0FF0
1E30
1C00
3800
7FC0
FFC0
3800
3800
7F80
FF00
3800
1C00
1E30
0FF0
0FF0
03E0
ENDCHAR
STARTCHAR trademark.uni2122
ENCODING 8482
SWIDTH 576 0
DWIDTH 14 0
BBX 14 7 0 11
BITMAP
FD8C
FDDC
31FC
31FC
31AC
318C
318C
ENDCHAR
STARTCHAR partialdiff.uni2202
ENCODING 8706
SWIDTH 576 0
DWIDTH 14 0
BBX 11 16 2 0
BITMAP
0F00
1F80
1CC0
00C0
00E0
00E0
1CE0
72E0
71E0
E1E0
E1E0
E1C0
E1C0
E380
7300
3E00
ENDCHAR
STARTCHAR Delta.uni2206
ENCODING 8710
SWIDTH 576 0
DWIDTH 14 0
BBX 14 17 0 0
BITMAP
0780
0780
0780
0FC0
0FC0
0FC0
1CE0
1CE0
1CE0
3870
3870
3870
7878
7038
7FF8
FFFC
FFFC
ENDCHAR
STARTCHAR Pi.uni03A0
ENCODING 928
SWIDTH 576 0
DWIDTH 14 0
BBX 10 18 2 0
BITMAP
FFC0
FFC0
FFC0
E1C0
E1C0
E1C0
E1C0
E1C0
E1C0
E1C0
E1C0
E1C0
E1C0
E1C0
E1C0
E1C0
E1C0
E1C0
ENDCHAR
STARTCHAR summation.uni2211
ENCODING 8721
SWIDTH 576 0
DWIDTH 14 0
BBX 11 23 1 -5
BITMAP
FFE0
FFE0
7FE0
7800
3800
3C00
1C00
1E00
0E00
0F00
0700
0780
0700
0F00
0E00
1E00
1C00
3C00
3800
7800
7FE0
FFE0
FFE0
ENDCHAR
STARTCHAR minus.uni2212
ENCODING 8722
SWIDTH 576 0
DWIDTH 14 0
BBX 10 3 2 7
BITMAP
FFC0
FFC0
FFC0
ENDCHAR
STARTCHAR slashdiv.uni2215
ENCODING 8725
SWIDTH 576 0
DWIDTH 14 0
BBX 11 20 1 -2
BITMAP
0060
0060
00C0
00C0
0180
0180
0300
0300
0600
0600
0C00
0C00
1800
1800
3000
3000
6000
6000
C000
C000
ENDCHAR
STARTCHAR bulletop.uni2219
ENCODING 8729
SWIDTH 576 0
DWIDTH 14 0
BBX 4 4 5 6
BITMAP
F000
F000
F000
F000
ENDCHAR
STARTCHAR radical.uni221A
ENCODING 8730
SWIDTH 576 0
DWIDTH 14 0
BBX 13 20 1 0
BITMAP
0038
0038
0030
0070
0070
0060
00E0
00E0
00C0
F1C0
F1C0
3180
3B80
1B80
1B00
1F00
0F00
0E00
0E00
0E00
ENDCHAR
STARTCHAR infinity.uni221E
ENCODING 8734
SWIDTH 576 0
DWIDTH 14 0
BBX 14 10 0 2
BITMAP
3870
7CF8
E79C
C30C
C30C
C30C
C30C
E79C
7CF8
3870
ENDCHAR
STARTCHAR integral.uni222B
ENCODING 8747
SWIDTH 576 0
DWIDTH 14 0
BBX 13 22 1 -4
BITMAP
00F0
01B8
01B8
0338
0300
0300
0700
0700
0700
0700
0700
0700
0700
0700
0700
0700
0600
0600
E600
EC00
EC00
7800
ENDCHAR
STARTCHAR approxequal.uni2248
ENCODING 8776
SWIDTH 576 0
DWIDTH 14 0
BBX 12 9 1 3
BITMAP
7C10
FFF0
FFF0
83E0
0000
7C10
FFF0
FFF0
83E0
ENDCHAR
STARTCHAR notequal.uni2260
ENCODING 8800
SWIDTH 576 0
DWIDTH 14 0
BBX 12 15 1 1
BITMAP
0020
0070
00E0
FFF0
FFF0
FFF0
0700
0600
0E00
FFF0
FFF0
FFF0
7000
E000
4000
ENDCHAR
STARTCHAR lessequal.uni2264
ENCODING 8804
SWIDTH 576 0
DWIDTH 14 0
BBX 12 14 1 0
BITMAP
0010
00F0
07F0
3FC0
FE00
F000
FE00
3FC0
07F0
00F0
0010
FFF0
FFF0
FFF0
ENDCHAR
STARTCHAR greaterequal.uni2265
ENCODING 8805
SWIDTH 576 0
DWIDTH 14 0
BBX 12 14 1 0
BITMAP
8000
F000
FE00
3FC0
07F0
00F0
07F0
3FC0
FE00
F000
8000
FFF0
FFF0
FFF0
ENDCHAR
STARTCHAR lozenge.uni25CA
ENCODING 9674
SWIDTH 576 0
DWIDTH 14 0
BBX 11 23 1 -5
BITMAP
0400
0400
0E00
0A00
1B00
1100
3180
2080
60C0
4040
C060
8020
C060
4040
60C0
2080
3180
1100
1B00
0A00
0E00
0400
0400
ENDCHAR
STARTCHAR fi.uniFB01
ENCODING 64257
SWIDTH 576 0
DWIDTH 14 0
BBX 12 18 0 0
BITMAP
0F70
1F70
3F70
3800
3800
FFF0
FFF0
FFF0
3870
3870
3870
3870
3870
3870
3870
3870
3870
3870
ENDCHAR
STARTCHAR fl.uniFB02
ENCODING 64258
SWIDTH 576 0
DWIDTH 14 0
BBX 12 18 0 0
BITMAP
0FF0
1FF0
3FF0
3870
3870
FF70
FF70
FF70
3870
3870
3870
3870
3870
3870
3870
3870
3870
3870
ENDCHAR
STARTCHAR eqminus.uni23BB
ENCODING 9147
SWIDTH 832 0
DWIDTH 14 0
BBX 10 3 2 12
BITMAP
FFC0
FFC0
FFC0
ENDCHAR
STARTCHAR lf.uni240A
ENCODING 9226
SWIDTH 576 0
DWIDTH 14 0
BBX 13 19 0 -1
BITMAP
C000
C000
C000
C000
C000
C000
C000
F800
F800
01F8
01F8
0180
0180
01F0
01F0
0180
0180
0180
0180
ENDCHAR
STARTCHAR esc.uni241B
ENCODING 9243
SWIDTH 576 0
DWIDTH 14 0
BBX 13 23 0 -4
BITMAP
F800
F800
C000
F800
F800
C000
C000
F380
F780
0600
0700
0300
0380
0180
07B8
0778
0060
0060
0060
0060
0060
0078
0038
ENDCHAR
STARTCHAR bdlvr.uni251C
ENCODING 9500
SWIDTH 576 0
DWIDTH 14 0
BBX 9 22 3 -3
BITMAP
E000
E000
E000
E000
E000
E000
E000
E000
E000
E000
FF80
FF80
FF80
E000
E000
E000
E000
E000
E000
E000
E000
E000
ENDCHAR
STARTCHAR block.uni2588
ENCODING 9608
SWIDTH 832 0
DWIDTH 14 0
BBX 14 23 0 -4
BITMAP
FFFC
FFFC
FFFC
FFFC
FFFC
FFFC
FFFC
FFFC
FFFC
FFFC
FFFC
FFFC
FFFC
FFFC
FFFC
FFFC
FFFC
FFFC
FFFC
FFFC
FFFC
FFFC
FFFC
ENDCHAR
STARTCHAR shade.uni2592
ENCODING 9618
SWIDTH 576 0
DWIDTH 14 0
BBX 14 23 0 -4
BITMAP
5554
0000
AAA8
0000
5554
0000
AAA8
0000
5554
0000
AAA8
0000
5554
0000
AAA8
0000
5554
0000
AAA8
0000
5554
0000
AAA8
ENDCHAR
STARTCHAR filledbox.uni25A0
ENCODING 9632
SWIDTH 576 0
DWIDTH 14 0
BBX 10 10 2 2
BITMAP
FFC0
FFC0
FFC0
FFC0
FFC0
FFC0
FFC0
FFC0
FFC0
FFC0
ENDCHAR
STARTCHAR triagup.uni25B2
ENCODING 9650
SWIDTH 576 0
DWIDTH 14 0
BBX 12 12 1 1
BITMAP
0600
0600
0F00
0F00
1F80
1F80
3FC0
3FC0
7FE0
7FE0
FFF0
FFF0
ENDCHAR
STARTCHAR triagright.uni25B6
ENCODING 9654
SWIDTH 576 0
DWIDTH 14 0
BBX 12 11 1 3
BITMAP
C000
F000
FC00
FF00
FFC0
FFF0
FFC0
FF00
FC00
F000
C000
ENDCHAR
STARTCHAR triagdn.uni25BC
ENCODING 9660
SWIDTH 576 0
DWIDTH 14 0
BBX 12 12 1 1
BITMAP
FFF0
FFF0
7FE0
7FE0
3FC0
3FC0
1F80
1F80
0F00
0F00
0600
0600
ENDCHAR
STARTCHAR uparrtipleft.uni21B0
ENCODING 8624
SWIDTH 832 0
DWIDTH 14 0
BBX 13 18 0 0
BITMAP
0400
0C00
1800
3800
7FF0
FFF8
7FF8
3838
1838
0C38
0438
0038
0038
0038
0038
0038
0038
0038
ENDCHAR
STARTCHAR uparrtipright.uni21B1
ENCODING 8625
SWIDTH 832 0
DWIDTH 14 0
BBX 13 18 1 0
BITMAP
0100
0180
00C0
00E0
7FF0
FFF8
FFF0
E0E0
E0C0
E180
E100
E000
E000
E000
E000
E000
E000
E000
ENDCHAR
STARTCHAR carriagereturn.uni21B5
ENCODING 8629
SWIDTH 576 0
DWIDTH 14 0
BBX 13 16 0 0
BITMAP
0038
0038
0038
0038
0038
0438
0C38
1838
3838
7FF8
FFF8
7FF0
3800
1800
0C00
0400
ENDCHAR
STARTCHAR arrowleft.uni2190
ENCODING 8592
SWIDTH 576 0
DWIDTH 14 0
BBX 13 11 0 1
BITMAP
0400
0C00
1800
3800
7FF8
FFF8
7FF8
3800
1800
0C00
0400
ENDCHAR
STARTCHAR arrowup.uni2191
ENCODING 8593
SWIDTH 576 0
DWIDTH 14 0
BBX 11 23 1 -5
BITMAP
0400
0E00
1F00
3F80
7FC0
CE60
0E00
0E00
0E00
0E00
0E00
0E00
0E00
0E00
0E00
0E00
0E00
0E00
0E00
0E00
0E00
0E00
0E00
ENDCHAR
STARTCHAR arrowright.uni2192
ENCODING 8594
SWIDTH 576 0
DWIDTH 14 0
BBX 14 11 0 1
BITMAP
0080
00C0
0060
0070
FFF8
FFFC
FFF8
0070
0060
00C0
0080
ENDCHAR
STARTCHAR arrowdown.uni2193
ENCODING 8595
SWIDTH 576 0
DWIDTH 14 0
BBX 11 23 1 -5
BITMAP
0E00
0E00
0E00
0E00
0E00
0E00
0E00
0E00
0E00
0E00
0E00
0E00
0E00
0E00
0E00
0E00
0E00
CE60
7FC0
3F80
1F00
0E00
0400
ENDCHAR
STARTCHAR x-bar.uni0304
ENCODING 772
SWIDTH 608 0
DWIDTH 14 0
BBX 12 18 1 0
BITMAP
7FE0
7FE0
0000
0000
0000
F0F0
79E0
39C0
3FC0
1F80
0F00
0F00
1F80
1F80
3FC0
39C0
79E0
F0F0
ENDCHAR
STARTCHAR x-hat.uni0302
ENCODING 770
SWIDTH 608 0
DWIDTH 14 0
BBX 12 19 1 0
BITMAP
0600
0F00
1F80
30C0
0000
0000
F0F0
79E0
39C0
3FC0
1F80
0F00
0F00
1F80
1F80
3FC0
39C0
79E0
F0F0
ENDCHAR
STARTCHAR y-bar.uni0233
ENCODING 563
SWIDTH 608 0
DWIDTH 14 0
BBX 12 23 1 -5
BITMAP
7FE0
7FE0
0000
0000
0000
F0F0
70E0
70E0
79E0
39C0
39C0
3DC0
1F80
1F80
0F80
0F00
0F00
0700
0E00
0E00
7E00
7C00
7800
ENDCHAR
STARTCHAR y-hat.uni0177
ENCODING 375
SWIDTH 608 0
DWIDTH 14 0
BBX 12 24 1 -5
BITMAP
0600
0F00
1F80
30C0
0000
0000
F0F0
70E0
70E0
79E0
39C0
39C0
3DC0
1F80
1F80
0F80
0F00
0F00
0700
0E00
0E00
7E00
7C00
7800
ENDCHAR
STARTCHAR boldparleft.uni27EA
ENCODING 10218
SWIDTH 832 0
DWIDTH 14 0
BBX 7 21 4 -3
BITMAP
1E00
3C00
3C00
7800
7800
7800
F000
F000
F000
F000
F000
F000
F000
F000
F000
7800
7800
7800
3C00
3C00
1E00
ENDCHAR
STARTCHAR boldparright.uni27EB
ENCODING 10219
SWIDTH 832 0
DWIDTH 14 0
BBX 7 21 3 -3
BITMAP
F000
7800
7800
3C00
3C00
3C00
1E00
1E00
1E00
1E00
1E00
1E00
1E00
1E00
1E00
3C00
3C00
3C00
7800
7800
F000
ENDCHAR
STARTCHAR x-power.uni02E3
ENCODING 739
SWIDTH 609 0
DWIDTH 14 0
BBX 9 10 2 8
BITMAP
E380
6300
7700
3E00
1C00
1C00
3E00
7700
6300
E380
ENDCHAR
STARTCHAR Sigma.uni03A3
ENCODING 931
SWIDTH 576 0
DWIDTH 14 0
BBX 11 17 1 0
BITMAP
FFE0
FFE0
FFE0
F000
7800
3C00
1E00
0F00
0780
0F00
1E00
3C00
7800
F000
FFE0
FFE0
FFE0
ENDCHAR
STARTCHAR theta.uni03B8
ENCODING 952
SWIDTH 832 0
DWIDTH 14 0
BBX 12 18 1 0
BITMAP
0F00
3FC0
7FE0
70E0
70E0
E070
E070
E070
FFF0
FFF0
E070
E070
E070
70E0
70E0
7FE0
3FC0
0F00
ENDCHAR
STARTCHAR mu.uni03BC
ENCODING 956
SWIDTH 576 0
DWIDTH 14 0
BBX 12 18 2 -5
BITMAP
E0E0
E0E0
E0E0
E0E0
E0E0
E0E0
E0E0
E0E0
E0E0
F1E0
FFE0
FFF0
EEF0
E000
E000
E000
E000
E000
ENDCHAR
STARTCHAR sigma.uni03C3
ENCODING 963
SWIDTH 832 0
DWIDTH 14 0
BBX 12 13 1 0
BITMAP
0FF0
3FF0
7FF0
71C0
E0E0
E0E0
E070
E070
E070
70E0
7FE0
3FC0
1F80
ENDCHAR
STARTCHAR exponent.uni1D07
ENCODING 7431
SWIDTH 576 0
DWIDTH 14 0
BBX 9 14 2 1
BITMAP
FF80
FF80
FF80
E000
E000
FF80
FF80
FF80
E000
E000
E000
FF80
FF80
FF80
ENDCHAR
STARTCHAR mesangle.uni2221
ENCODING 8737
SWIDTH 576 0
DWIDTH 14 0
BBX 13 17 0 0
BITMAP
0060
0070
00E0
00E0
01C0
01C0
0380
0700
0700
0F80
0FC0
1CC0
3860
3860
7FF8
7FF8
FFF8
ENDCHAR
STARTCHAR triagleft.uni25C0
ENCODING 9664
SWIDTH 576 0
DWIDTH 14 0
BBX 12 11 1 3
BITMAP
0030
00F0
03F0
0FF0
3FF0
FFF0
3FF0
0FF0
03F0
00F0
0030
ENDCHAR
STARTCHAR germandblS.uni1E9E
ENCODING 7838
SWIDTH 576 0
DWIDTH 14 0
BBX 12 18 1 0
BITMAP
0FF0
3FE0
7FE0
70C0
E1C0
E380
E380
E700
E7C0
EFE0
E0F0
E070
E070
E070
E870
EFF0
EFE0
E7C0
ENDCHAR
STARTCHAR Gamma.uni0393
ENCODING 915
SWIDTH 576 0
DWIDTH 14 0
BBX 10 18 3 0
BITMAP
FFC0
FFC0
FFC0
E000
E000
E000
E000
E000
E000
E000
E000
E000
E000
E000
E000
E000
E000
E000
ENDCHAR
ENDFONT
